<svg xmlns="http://www.w3.org/2000/svg" style="display: none;">
<symbol id="car" viewBox="0 0 24 24"><g fill="none" stroke="currentColor" stroke-linecap="round" stroke-linejoin="round" stroke-width="inherit"><path d="M19 17h2c.6 0 1-.4 1-1v-3c0-.9-.7-1.7-1.5-1.9C18.7 10.6 16 10 16 10s-1.3-1.4-2.2-2.3c-.5-.4-1.1-.7-1.8-.7H5c-.6 0-1.1.4-1.4.9l-1.4 2.9A3.7 3.7 0 0 0 2 12v4c0 .6.4 1 1 1h2"/><circle cx="7" cy="17" r="2"/><path d="M9 17h6"/><circle cx="17" cy="17" r="2"/></g></symbol>
<symbol id="engine" viewBox="0 0 24 24"><path fill="none" stroke="currentColor" stroke-linecap="round" stroke-linejoin="round" stroke-width="inherit" d="M3 10v6m9-11v3m-2-3h4m-9 8H3m3-3h2l2-2h3.382a1 1 0 0 1 .894.553l1.448 2.894a1 1 0 0 0 .894.553H18v-2h2a1 1 0 0 1 1 1v6a1 1 0 0 1-1 1h-2v-2h-3v2a1 1 0 0 1-1 1h-3.465a1 1 0 0 1-.832-.445L8 16H6z"/></symbol>
<symbol id="search" viewBox="0 0 24 24"><path fill="none" stroke="currentColor" stroke-linecap="round" stroke-linejoin="round" stroke-width="inherit" d="M3 10a7 7 0 1 0 14 0a7 7 0 1 0-14 0m18 11l-6-6"/></symbol>
</svg>